<?xml version="1.0" encoding="UTF-8" standalone="no"?>
<!-- Created with Inkscape (http://www.inkscape.org/) -->

<svg
   width="300mm"
   height="300mm"
   viewBox="0 0 300 300"
   version="1.1"
   id="svg1"
   inkscape:version="1.4 (86a8ad7, 2024-10-11)"
   sodipodi:docname="Box_sides.svg"
   xmlns:inkscape="http://www.inkscape.org/namespaces/inkscape"
   xmlns:sodipodi="http://sodipodi.sourceforge.net/DTD/sodipodi-0.dtd"
   xmlns="http://www.w3.org/2000/svg"
   xmlns:svg="http://www.w3.org/2000/svg">
  <sodipodi:namedview
     id="namedview1"
     pagecolor="#ffffff"
     bordercolor="#000000"
     borderopacity="0.25"
     inkscape:showpageshadow="2"
     inkscape:pageopacity="0.0"
     inkscape:pagecheckerboard="0"
     inkscape:deskcolor="#d1d1d1"
     inkscape:document-units="mm"
     inkscape:zoom="1.3095539"
     inkscape:cx="631.89458"
     inkscape:cy="378.37313"
     inkscape:window-width="3840"
     inkscape:window-height="2054"
     inkscape:window-x="2869"
     inkscape:window-y="-11"
     inkscape:window-maximized="1"
     inkscape:current-layer="svg1" />
  <defs
     id="defs1" />
  <g
     inkscape:label="Layer 1"
     inkscape:groupmode="layer"
     id="layer1" />
  <g
     id="panel2113"
     style="stroke-width:0.01;stroke-dasharray:none"
     transform="translate(0.60612245,-87.685714)">
    <path
       style="fill:none;stroke:#000000;stroke-width:0.01;stroke-dasharray:none"
       d="m 3.8,180.77 h 1.98 v -3 h 5.17 v 3 h 4.895 v -3 h 5.17 v 3 h 4.895 v -3 h 5.17 v 3 h 4.895 v -3 h 5.17 v 3 h 4.895 v -3 h 5.17 v 3 h 4.895 v -3 h 5.17 v 3 h 4.895 v -3 h 5.17 v 3 h 4.895 v -3 h 5.17 v 3 H 86.3 v -3 h 5.17 v 3 h 4.895 v -3 h 5.17 v 3 h 4.895 v -3 h 5.17 v 3 h 4.895 v -3 h 5.17 v 3 h 4.895 v -3 h 5.17 v 3 h 4.895 v -3 h 5.17 v 3 h 4.895 v -3 h 5.17 v 3 h 4.895 v -3 h 5.17 v 3 h 4.895 v -3 h 5.17 v 3 h 1.98"
       id="path24" />
    <path
       style="fill:none;stroke:#000000;stroke-width:0.01;stroke-dasharray:none"
       d="m 173.97,180.77 v 2.811 h 3 v 5.17 h -3 v 5.726 h 3 v 5.17 h -3 v 5.727 h 3 v 5.17 h -3 v 5.726 h 3 v 5.17 h -3 v 5.726 h 3 v 5.17 h -3 v 5.726 h 3 v 5.17 h -3 v 5.727 h 3 v 5.17 h -3 v 2.811"
       id="path25" />
    <path
       style="fill:none;stroke:#000000;stroke-width:0.01;stroke-dasharray:none"
       d="m 173.97,256.94 h -1.98 v 3 h -5.17 v -3 h -4.895 v 3 h -5.17 v -3 h -4.895 v 3 h -5.17 v -3 h -4.895 v 3 h -5.17 v -3 h -4.895 v 3 h -5.17 v -3 h -4.895 v 3 h -5.17 v -3 H 111.6 v 3 h -5.17 v -3 h -4.895 v 3 h -5.17 v -3 H 91.47 v 3 H 86.3 v -3 h -4.895 v 3 h -5.17 v -3 H 71.34 v 3 h -5.17 v -3 h -4.895 v 3 h -5.17 v -3 H 51.21 v 3 h -5.17 v -3 h -4.895 v 3 h -5.17 v -3 H 31.08 v 3 h -5.17 v -3 h -4.895 v 3 h -5.17 v -3 H 10.95 v 3 H 5.78 v -3 H 3.8"
       id="path26" />
    <path
       style="fill:none;stroke:#000000;stroke-width:0.01;stroke-dasharray:none"
       d="m 3.8,256.94 v -2.811 0 -5.17 0 -5.726 0 -5.17 0 -5.727 0 -5.17 0 -5.726 0 -5.17 0 -5.726 0 -5.17 0 -5.726 0 -5.17 0 -5.727 0 -5.17 0 -2.811"
       id="path27" />
  </g>
  <g
     id="panel2592"
     transform="translate(-306.09184,-173.35102)"
     style="stroke-width:0.01;stroke-dasharray:none">
    <path
       style="fill:none;stroke:#000000;stroke-width:0.01;stroke-dasharray:none"
       d="m 312.74,180.77 h 1.98 v -3 h 5.17 v 3 h 4.895 v -3 h 5.17 v 3 h 4.895 v -3 h 5.17 v 3 h 4.895 v -3 h 5.17 v 3 h 4.895 v -3 h 5.17 v 3 h 4.895 v -3 h 5.17 v 3 h 4.895 v -3 h 5.17 v 3 h 4.895 v -3 h 5.17 v 3 h 4.895 v -3 h 5.17 v 3 h 4.895 v -3 h 5.17 v 3 h 4.895 v -3 h 5.17 v 3 h 4.895 v -3 h 5.17 v 3 h 4.895 v -3 h 5.17 v 3 h 4.895 v -3 h 5.17 v 3 h 4.895 v -3 h 5.17 v 3 h 4.895 v -3 h 5.17 v 3 h 4.895 v -3 h 5.17 v 3 h 1.98"
       id="path32" />
    <path
       style="fill:none;stroke:#000000;stroke-width:0.01;stroke-dasharray:none"
       d="m 482.91,180.77 v 2.811 0 5.17 0 5.726 0 5.17 0 5.727 0 5.17 0 5.726 0 5.17 0 5.726 0 5.17 0 5.726 0 5.17 0 5.727 0 5.17 0 2.811"
       id="path33" />
    <path
       style="fill:none;stroke:#000000;stroke-width:0.01;stroke-dasharray:none"
       d="m 482.91,256.94 h -1.98 v 3 h -5.17 v -3 h -4.895 v 3 h -5.17 v -3 H 460.8 v 3 h -5.17 v -3 h -4.895 v 3 h -5.17 v -3 h -4.895 v 3 h -5.17 v -3 h -4.895 v 3 h -5.17 v -3 h -4.895 v 3 h -5.17 v -3 h -4.895 v 3 h -5.17 v -3 h -4.895 v 3 h -5.17 v -3 h -4.895 v 3 h -5.17 v -3 h -4.895 v 3 h -5.17 v -3 h -4.895 v 3 h -5.17 v -3 h -4.895 v 3 h -5.17 v -3 h -4.895 v 3 h -5.17 v -3 h -4.895 v 3 h -5.17 v -3 h -4.895 v 3 h -5.17 v -3 h -4.895 v 3 h -5.17 v -3 h -1.98"
       id="path34" />
    <path
       style="fill:none;stroke:#000000;stroke-width:0.01;stroke-dasharray:none"
       d="m 312.74,256.94 v -2.811 h -3 v -5.17 h 3 v -5.726 h -3 v -5.17 h 3 v -5.727 h -3 v -5.17 h 3 v -5.726 h -3 v -5.17 h 3 v -5.726 h -3 v -5.17 h 3 v -5.726 h -3 v -5.17 h 3 v -5.727 h -3 v -5.17 h 3 v -2.811"
       id="path35" />
  </g>
</svg>
