<?xml version="1.0" encoding="UTF-8" standalone="no"?>
<!-- Created with Inkscape (http://www.inkscape.org/) -->

<svg
   width="300mm"
   height="300mm"
   viewBox="0 0 300 300"
   version="1.1"
   id="svg1"
   inkscape:version="1.4 (86a8ad7, 2024-10-11)"
   sodipodi:docname="Pohja.svg"
   xmlns:inkscape="http://www.inkscape.org/namespaces/inkscape"
   xmlns:sodipodi="http://sodipodi.sourceforge.net/DTD/sodipodi-0.dtd"
   xmlns="http://www.w3.org/2000/svg"
   xmlns:svg="http://www.w3.org/2000/svg">
  <sodipodi:namedview
     id="namedview1"
     pagecolor="#ffffff"
     bordercolor="#000000"
     borderopacity="0.25"
     inkscape:showpageshadow="2"
     inkscape:pageopacity="0.0"
     inkscape:pagecheckerboard="0"
     inkscape:deskcolor="#d1d1d1"
     inkscape:document-units="mm"
     inkscape:zoom="0.65477694"
     inkscape:cx="396.31817"
     inkscape:cy="561.25984"
     inkscape:window-width="3840"
     inkscape:window-height="2054"
     inkscape:window-x="2869"
     inkscape:window-y="-11"
     inkscape:window-maximized="1"
     inkscape:current-layer="layer1" />
  <defs
     id="defs1" />
  <g
     inkscape:label="Layer 1"
     inkscape:groupmode="layer"
     id="layer1">
    <g
       id="panel7448"
       transform="translate(5.6571429,-242.85306)"
       style="stroke-width:0.01;stroke-dasharray:none">
      <path
         style="fill:none;stroke:#000000;stroke-width:0.01;stroke-dasharray:none"
         d="m 3.8,260.77 h 1.96 v -3 h 5.17 v 3 h 4.875 v -3 h 5.17 v 3 h 4.875 v -3 h 5.17 v 3 h 4.875 v -3 h 5.17 v 3 h 4.875 v -3 h 5.17 v 3 h 4.875 v -3 h 5.17 v 3 h 4.875 v -3 h 5.17 v 3 h 4.875 v -3 h 5.17 v 3 h 4.875 v -3 h 5.17 v 3 h 4.875 v -3 h 5.17 v 3 h 4.875 v -3 h 5.17 v 3 h 4.875 v -3 h 5.17 v 3 h 4.875 v -3 h 5.17 v 3 h 4.875 v -3 h 5.17 v 3 h 4.875 v -3 h 5.17 v 3 h 4.875 v -3 h 5.17 v 3 h 4.875 v -3 h 5.17 v 3 h 4.875 v -3 h 5.17 v 3 h 4.875 v -3 h 5.17 v 3 h 4.875 v -3 h 5.17 v 3 h 4.875 v -3 h 5.17 v 3 h 4.875 v -3 h 5.17 v 3 h 4.875 v -3 h 5.17 v 3 h 4.875 v -3 h 5.17 v 3 h 4.875 v -3 h 5.17 v 3 h 1.96"
         id="path5" />
      <path
         style="fill:none;stroke:#000000;stroke-width:0.01;stroke-dasharray:none"
         d="m 253.97,260.77 v 2.811 h 3 v 5.17 h -3 v 5.726 h 3 v 5.17 h -3 v 5.727 h 3 v 5.17 h -3 v 5.726 h 3 v 5.17 h -3 v 5.726 h 3 v 5.17 h -3 v 5.726 h 3 v 5.171 h -3 v 5.726 h 3 v 5.17 h -3 v 2.811"
         id="path6" />
      <path
         style="fill:none;stroke:#000000;stroke-width:0.01;stroke-dasharray:none"
         d="m 253.97,336.94 h -1.96 v 3 h -5.17 v -3 h -4.875 v 3 h -5.17 v -3 h -4.875 v 3 h -5.17 v -3 h -4.875 v 3 h -5.17 v -3 h -4.875 v 3 h -5.17 v -3 h -4.875 v 3 h -5.17 v -3 h -4.875 v 3 h -5.17 v -3 h -4.875 v 3 h -5.17 v -3 h -4.875 v 3 h -5.17 v -3 h -4.875 v 3 h -5.17 v -3 h -4.875 v 3 h -5.17 v -3 h -4.875 v 3 h -5.17 v -3 h -4.875 v 3 h -5.17 v -3 h -4.875 v 3 h -5.17 v -3 h -4.875 v 3 h -5.17 v -3 h -4.875 v 3 h -5.17 v -3 H 91.29 v 3 h -5.17 v -3 h -4.875 v 3 h -5.17 v -3 H 71.2 v 3 h -5.17 v -3 h -4.875 v 3 h -5.17 v -3 H 51.11 v 3 h -5.17 v -3 h -4.875 v 3 h -5.17 v -3 H 31.02 v 3 h -5.17 v -3 h -4.875 v 3 h -5.17 v -3 H 10.93 v 3 H 5.76 v -3 H 3.8"
         id="path7" />
      <path
         style="fill:none;stroke:#000000;stroke-width:0.01;stroke-dasharray:none"
         d="m 3.8,336.94 v -2.811 0 -5.17 0 -5.726 0 -5.171 0 -5.726 0 -5.17 0 -5.726 0 -5.17 0 -5.726 0 -5.17 0 -5.727 0 -5.17 0 -5.726 0 -5.17 0 -2.811"
         id="path8" />
    </g>
    <g
       id="panel1530"
       transform="translate(-245.68163,-56.167347)"
       style="stroke-width:0.01;stroke-dasharray:none">
      <path
         style="fill:none;stroke:#000000;stroke-width:0.01;stroke-dasharray:none"
         d="m 257.77,257.77 h 5.56 v 3 h 4.83 v -3 h 5.644 v 3 h 4.83 v -3 h 5.645 v 3 h 4.83 v -3 h 5.644 v 3 h 4.83 v -3 h 5.645 v 3 h 4.83 v -3 h 5.645 v 3 h 4.83 v -3 h 5.644 v 3 h 4.83 v -3 h 5.645 v 3 h 4.83 v -3 h 5.645 v 3 h 4.83 v -3 h 5.644 v 3 h 4.83 v -3 h 5.645 v 3 h 4.83 v -3 h 5.644 v 3 h 4.83 v -3 h 5.56"
         id="path9" />
      <path
         style="fill:none;stroke:#000000;stroke-width:0.01;stroke-dasharray:none"
         d="m 388.94,257.77 v 5.981 h -3 v 4.83 h 3 v 6.066 h -3 v 4.83 h 3 v 6.067 h -3 v 4.83 h 3 v 6.066 h -3 v 4.83 h 3 v 6.066 h -3 v 4.83 h 3 v 6.067 h -3 v 4.829 h 3 v 6.067 h -3 v 4.83 h 3 v 5.981"
         id="path10" />
      <path
         style="fill:none;stroke:#000000;stroke-width:0.01;stroke-dasharray:none"
         d="m 388.94,339.94 h -5.56 v -3 h -4.83 v 3 h -5.644 v -3 h -4.83 v 3 h -5.645 v -3 h -4.83 v 3 h -5.644 v -3 h -4.83 v 3 h -5.645 v -3 h -4.83 v 3 h -5.645 v -3 h -4.83 v 3 h -5.644 v -3 h -4.83 v 3 h -5.645 v -3 h -4.83 v 3 h -5.645 v -3 h -4.83 v 3 h -5.644 v -3 h -4.83 v 3 h -5.645 v -3 h -4.83 v 3 h -5.644 v -3 h -4.83 v 3 h -5.56"
         id="path11" />
      <path
         style="fill:none;stroke:#000000;stroke-width:0.01;stroke-dasharray:none"
         d="m 257.77,339.94 v -5.981 h 3 v -4.83 h -3 v -6.067 h 3 v -4.829 h -3 v -6.067 h 3 v -4.83 h -3 v -6.066 h 3 v -4.83 h -3 v -6.066 h 3 v -4.83 h -3 v -6.067 h 3 v -4.83 h -3 v -6.066 h 3 v -4.83 h -3 v -5.981"
         id="path12" />
    </g>
    <g
       id="panel3787"
       transform="translate(-379.43265,-151.93469)"
       style="stroke-width:0.01;stroke-dasharray:none">
      <path
         style="fill:none;stroke:#000000;stroke-width:0.01;stroke-dasharray:none"
         d="m 392.74,260.77 h 1.96 v -3 h 5.17 v 3 h 4.875 v -3 h 5.17 v 3 h 4.875 v -3 h 5.17 v 3 h 4.875 v -3 h 5.17 v 3 h 4.875 v -3 h 5.17 v 3 h 4.875 v -3 h 5.17 v 3 h 4.875 v -3 h 5.17 v 3 h 4.875 v -3 h 5.17 v 3 h 4.875 v -3 h 5.17 v 3 h 4.875 v -3 h 5.17 v 3 h 4.875 v -3 h 5.17 v 3 h 4.875 v -3 h 5.17 v 3 h 4.875 v -3 h 5.17 v 3 h 4.875 v -3 h 5.17 v 3 h 4.875 v -3 h 5.17 v 3 h 4.875 v -3 h 5.17 v 3 h 4.875 v -3 h 5.17 v 3 h 4.875 v -3 h 5.17 v 3 h 4.875 v -3 h 5.17 v 3 h 4.875 v -3 h 5.17 v 3 h 4.875 v -3 h 5.17 v 3 h 4.875 v -3 h 5.17 v 3 h 4.875 v -3 h 5.17 v 3 h 4.875 v -3 h 5.17 v 3 h 4.875 v -3 h 5.17 v 3 h 1.96"
         id="path13" />
      <path
         style="fill:none;stroke:#000000;stroke-width:0.01;stroke-dasharray:none"
         d="m 642.91,260.77 v 2.811 0 5.17 0 5.726 0 5.17 0 5.727 0 5.17 0 5.726 0 5.17 0 5.726 0 5.17 0 5.726 0 5.171 0 5.726 0 5.17 0 2.811"
         id="path14" />
      <path
         style="fill:none;stroke:#000000;stroke-width:0.01;stroke-dasharray:none"
         d="m 642.91,336.94 h -1.96 v 3 h -5.17 v -3 h -4.875 v 3 h -5.17 v -3 h -4.875 v 3 h -5.17 v -3 h -4.875 v 3 h -5.17 v -3 h -4.875 v 3 h -5.17 v -3 h -4.875 v 3 h -5.17 v -3 h -4.875 v 3 h -5.17 v -3 h -4.875 v 3 h -5.17 v -3 h -4.875 v 3 h -5.17 v -3 h -4.875 v 3 h -5.17 v -3 H 540.5 v 3 h -5.17 v -3 h -4.875 v 3 h -5.17 v -3 h -4.875 v 3 h -5.17 v -3 h -4.875 v 3 h -5.17 v -3 h -4.875 v 3 h -5.17 v -3 h -4.875 v 3 h -5.17 v -3 h -4.875 v 3 h -5.17 v -3 h -4.875 v 3 h -5.17 v -3 h -4.875 v 3 h -5.17 v -3 h -4.875 v 3 h -5.17 v -3 h -4.875 v 3 h -5.17 v -3 h -4.875 v 3 h -5.17 v -3 h -4.875 v 3 h -5.17 v -3 h -4.875 v 3 h -5.17 v -3 h -4.875 v 3 h -5.17 v -3 h -1.96"
         id="path15" />
      <path
         style="fill:none;stroke:#000000;stroke-width:0.01;stroke-dasharray:none"
         d="m 392.74,336.94 v -2.811 h -3 v -5.17 h 3 v -5.726 h -3 v -5.171 h 3 v -5.726 h -3 v -5.17 h 3 v -5.726 h -3 v -5.17 h 3 v -5.726 h -3 v -5.17 h 3 v -5.727 h -3 v -5.17 h 3 v -5.726 h -3 v -5.17 h 3 v -2.811"
         id="path16" />
    </g>
  </g>
</svg>
